<svg width="918" height="388" viewBox="0 0 918 388" fill="none" xmlns="http://www.w3.org/2000/svg">
<path d="M520.974 89.5644V85.5728H516.982V89.5644H520.974ZM520.974 113.514H516.982V117.506H520.974V113.514ZM579.251 113.514H583.243V109.522H579.251V113.514ZM579.251 149.039V153.031H583.243V149.039H579.251ZM520.974 149.039V145.048H516.982V149.039H520.974ZM520.974 193.745V197.737H524.965V193.745H520.974ZM473.873 193.745H469.881V197.737H473.873V193.745ZM473.873 54.0391V50.0475H469.881V54.0391H473.873ZM587.434 54.0391H591.426V50.0475H587.434V54.0391ZM587.434 89.5644V93.556H591.426V89.5644H587.434ZM516.982 89.5644V113.514H524.965V89.5644H516.982ZM520.974 117.506H579.251V109.522H520.974V117.506ZM575.26 113.514V149.039H583.243V113.514H575.26ZM579.251 145.048H520.974V153.031H579.251V145.048ZM516.982 149.039V193.745H524.965V149.039H516.982ZM520.974 189.754H473.873V197.737H520.974V189.754ZM477.865 193.745V54.0391H469.881V193.745H477.865ZM473.873 58.0307H587.434V50.0475H473.873V58.0307ZM583.442 54.0391V89.5644H591.426V54.0391H583.442ZM587.434 85.5728H520.974V93.556H587.434V85.5728ZM637.064 187.558L638.912 184.02L637.064 187.558ZM608.923 161.613L605.511 163.684L605.517 163.693L605.522 163.702L608.923 161.613ZM608.923 86.3711L612.324 88.4608L612.33 88.4517L612.335 88.4426L608.923 86.3711ZM718.093 60.2261L719.941 56.6879L718.093 60.2261ZM746.234 86.3711L742.822 88.4426L742.828 88.4517L742.833 88.4608L746.234 86.3711ZM746.234 161.613L749.635 163.702L749.641 163.693L749.646 163.684L746.234 161.613ZM718.093 187.558L719.941 191.096L718.093 187.558ZM693.345 154.627L695.399 158.05L695.413 158.042L695.427 158.033L693.345 154.627ZM704.721 142.453L708.236 144.345L708.246 144.327L708.256 144.309L704.721 142.453ZM704.721 105.531L701.187 107.386L701.197 107.405L701.207 107.423L704.721 105.531ZM693.345 93.3564L691.221 96.7358L691.277 96.771L691.334 96.8042L693.345 93.3564ZM661.612 93.3564L663.666 96.7792L663.68 96.7708L663.694 96.7623L661.612 93.3564ZM650.436 105.531L653.95 107.423L653.96 107.405L653.97 107.386L650.436 105.531ZM650.436 142.453L646.902 144.308L646.911 144.327L646.921 144.345L650.436 142.453ZM661.612 154.627L659.488 158.007L659.544 158.042L659.601 158.075L661.612 154.627ZM677.579 192.947C663.113 192.947 650.254 189.943 638.912 184.02L635.216 191.096C647.823 197.68 661.974 200.93 677.579 200.93V192.947ZM638.912 184.02C627.548 178.085 618.716 169.926 612.324 159.523L605.522 163.702C612.702 175.387 622.631 184.524 635.216 191.096L638.912 184.02ZM612.335 159.541C605.955 149.032 602.736 137.184 602.736 123.892H594.753C594.753 138.541 598.32 151.84 605.511 163.684L612.335 159.541ZM602.736 123.892C602.736 110.6 605.955 98.8267 612.324 88.4608L605.522 84.2814C598.32 96.0024 594.753 109.243 594.753 123.892H602.736ZM612.335 88.4426C618.73 77.9099 627.56 69.6925 638.912 63.7643L635.216 56.6879C622.618 63.2667 612.688 72.4793 605.511 84.2995L612.335 88.4426ZM638.912 63.7643C650.254 57.841 663.113 54.8375 677.579 54.8375V46.8543C661.974 46.8543 647.823 50.1042 635.216 56.6879L638.912 63.7643ZM677.579 54.8375C692.044 54.8375 704.903 57.841 716.246 63.7643L719.941 56.6879C707.334 50.1042 693.183 46.8543 677.579 46.8543V54.8375ZM716.246 63.7643C727.598 69.6925 736.427 77.9099 742.822 88.4426L749.646 84.2995C742.47 72.4793 732.539 63.2667 719.941 56.6879L716.246 63.7643ZM742.833 88.4608C749.203 98.8267 752.421 110.6 752.421 123.892H760.404C760.404 109.243 756.837 96.0024 749.635 84.2814L742.833 88.4608ZM752.421 123.892C752.421 137.184 749.203 149.032 742.822 159.541L749.646 163.684C756.837 151.84 760.404 138.541 760.404 123.892H752.421ZM742.833 159.523C736.441 169.926 727.61 178.085 716.246 184.02L719.941 191.096C732.527 184.524 742.456 175.387 749.635 163.702L742.833 159.523ZM716.246 184.02C704.903 189.943 692.044 192.947 677.579 192.947V200.93C693.183 200.93 707.334 197.68 719.941 191.096L716.246 184.02ZM677.579 162.81C684.098 162.81 690.074 161.246 695.399 158.05L691.292 151.205C687.304 153.598 682.768 154.827 677.579 154.827V162.81ZM695.427 158.033C700.851 154.719 705.124 150.125 708.236 144.345L701.207 140.561C698.731 145.16 695.42 148.682 691.264 151.221L695.427 158.033ZM708.256 144.309C711.398 138.323 712.904 131.478 712.904 123.892H704.921C704.921 130.41 703.633 135.939 701.187 140.598L708.256 144.309ZM712.904 123.892C712.904 116.309 711.399 109.513 708.236 103.638L701.207 107.423C703.632 111.927 704.921 117.372 704.921 123.892H712.904ZM708.256 103.675C705.144 97.7479 700.848 93.1117 695.357 89.9085L691.334 96.8042C695.423 99.1893 698.711 102.669 701.187 107.386L708.256 103.675ZM695.47 89.977C690.135 86.6237 684.134 84.974 677.579 84.974V92.9572C682.732 92.9572 687.242 94.2347 691.221 96.7358L695.47 89.977ZM677.579 84.974C671.023 84.974 664.975 86.6234 659.531 89.9504L663.694 96.7623C667.829 94.235 672.426 92.9572 677.579 92.9572V84.974ZM659.559 89.9336C654.208 93.1439 649.999 97.7762 646.902 103.675L653.97 107.386C656.461 102.641 659.703 99.1571 663.666 96.7792L659.559 89.9336ZM646.921 103.638C643.758 109.513 642.253 116.309 642.253 123.892H650.236C650.236 117.372 651.525 111.927 653.95 107.423L646.921 103.638ZM642.253 123.892C642.253 131.478 643.759 138.323 646.902 144.308L653.97 140.598C651.524 135.939 650.236 130.41 650.236 123.892H642.253ZM646.921 144.345C650.018 150.097 654.205 154.686 659.488 158.007L663.736 151.248C659.705 148.714 656.441 145.187 653.95 140.561L646.921 144.345ZM659.601 158.075C665.036 161.246 671.059 162.81 677.579 162.81V154.827C672.39 154.827 667.769 153.598 663.623 151.18L659.601 158.075ZM836.376 158.619L839.682 156.383L838.495 154.627H836.376V158.619ZM823.603 158.619V154.627H819.611V158.619H823.603ZM823.603 193.745V197.737H827.594V193.745H823.603ZM776.502 193.745H772.51V197.737H776.502V193.745ZM776.502 54.0391V50.0475H772.51V54.0391H776.502ZM877.489 60.4257L875.868 64.0733L877.489 60.4257ZM899.643 78.787L896.296 80.9624V80.9624L899.643 78.787ZM900.64 132.873L897.228 130.802L900.64 132.873ZM881.082 150.636L879.252 147.088L875.245 149.154L877.782 152.882L881.082 150.636ZM910.42 193.745V197.737H917.965L913.72 191.499L910.42 193.745ZM860.126 193.745L856.819 195.981L858.006 197.737H860.126V193.745ZM855.136 94.7534L852.439 97.6959L852.473 97.7271L852.508 97.7574L855.136 94.7534ZM823.603 90.3627V86.3711H819.611V90.3627H823.603ZM823.603 123.094H819.611V127.085H823.603V123.094ZM855.136 118.903L857.765 121.907L857.799 121.876L857.833 121.845L855.136 118.903ZM836.376 154.627H823.603V162.611H836.376V154.627ZM819.611 158.619V193.745H827.594V158.619H819.611ZM823.603 189.754H776.502V197.737H823.603V189.754ZM780.493 193.745V54.0391H772.51V193.745H780.493ZM776.502 58.0307H843.76V50.0475H776.502V58.0307ZM843.76 58.0307C856.234 58.0307 866.902 60.0884 875.868 64.0733L879.11 56.7781C868.916 52.2475 857.099 50.0475 843.76 50.0475V58.0307ZM875.868 64.0733C884.816 68.0503 891.57 73.6912 896.296 80.9624L902.989 76.6117C897.337 67.9165 889.322 61.3165 879.11 56.7781L875.868 64.0733ZM896.296 80.9624C901.015 88.2235 903.435 96.7621 903.435 106.728H911.418C911.418 95.4059 908.648 85.317 902.989 76.6117L896.296 80.9624ZM903.435 106.728C903.435 116.085 901.321 124.061 897.228 130.802L904.052 134.945C909.008 126.783 911.418 117.33 911.418 106.728H903.435ZM897.228 130.802C893.123 137.563 887.181 143 879.252 147.088L882.911 154.184C892.013 149.49 899.11 143.086 904.052 134.945L897.228 130.802ZM877.782 152.882L907.12 195.991L913.72 191.499L884.382 148.39L877.782 152.882ZM910.42 189.754H860.126V197.737H910.42V189.754ZM863.432 191.509L839.682 156.383L833.069 160.855L856.819 195.981L863.432 191.509ZM863.918 106.728C863.918 100.667 862.014 95.4677 857.765 91.7495L852.508 97.7574C854.645 99.6274 855.935 102.411 855.935 106.728H863.918ZM857.833 91.811C853.621 87.9496 847.686 86.3711 840.766 86.3711V94.3543C846.62 94.3543 850.265 95.703 852.439 97.6959L857.833 91.811ZM840.766 86.3711H823.603V94.3543H840.766V86.3711ZM819.611 90.3627V123.094H827.594V90.3627H819.611ZM823.603 127.085H840.766V119.102H823.603V127.085ZM840.766 127.085C847.647 127.085 853.553 125.592 857.765 121.907L852.508 115.899C850.333 117.802 846.659 119.102 840.766 119.102V127.085ZM857.833 121.845C862.013 118.013 863.918 112.796 863.918 106.728H855.935C855.935 111.039 854.645 113.938 852.439 115.96L857.833 121.845Z" fill="#E54920"/>
<path d="M107.172 286.752L103.737 284.719L103.18 285.659V286.752H107.172ZM107.172 337.445V341.437H111.163V337.445H107.172ZM60.0708 337.445H56.0792V341.437H60.0708V337.445ZM60.0708 286.153H64.0624V285.054L63.4997 284.11L60.0708 286.153ZM7.38168 197.739V193.748H0.356299L3.95278 199.783L7.38168 197.739ZM57.0771 197.739L60.5136 195.709L59.3548 193.748H57.0771V197.739ZM85.617 246.038L82.1806 248.068L85.6051 253.864L89.0473 248.079L85.617 246.038ZM114.357 197.739V193.748H112.087L110.926 195.698L114.357 197.739ZM159.861 197.739L163.296 199.773L166.862 193.748H159.861V197.739ZM103.18 286.752V337.445H111.163V286.752H103.18ZM107.172 333.454H60.0708V341.437H107.172V333.454ZM64.0624 337.445V286.153H56.0792V337.445H64.0624ZM63.4997 284.11L10.8106 195.696L3.95278 199.783L56.6419 288.197L63.4997 284.11ZM7.38168 201.731H57.0771V193.748H7.38168V201.731ZM53.6406 199.77L82.1806 248.068L89.0535 244.007L60.5136 195.709L53.6406 199.77ZM89.0473 248.079L117.787 199.78L110.926 195.698L82.1868 243.997L89.0473 248.079ZM114.357 201.731H159.861V193.748H114.357V201.731ZM156.426 195.706L103.737 284.719L110.607 288.785L163.296 199.773L156.426 195.706ZM195.523 331.258L197.371 327.72L195.523 331.258ZM167.382 305.313L163.97 307.384L163.976 307.394L163.982 307.403L167.382 305.313ZM167.382 230.071L170.783 232.161L170.789 232.152L170.794 232.143L167.382 230.071ZM276.553 203.926L278.4 200.388L276.553 203.926ZM304.693 230.071L301.281 232.143L301.287 232.152L301.293 232.161L304.693 230.071ZM304.693 305.313L308.094 307.403L308.1 307.394L308.105 307.384L304.693 305.313ZM276.553 331.258L278.4 334.797L276.553 331.258ZM251.805 298.328L253.858 301.75L253.872 301.742L253.886 301.734L251.805 298.328ZM263.181 286.153L266.695 288.046L266.705 288.027L266.715 288.009L263.181 286.153ZM263.181 249.231L259.647 251.086L259.656 251.105L259.666 251.123L263.181 249.231ZM251.805 237.057L249.681 240.436L249.736 240.471L249.794 240.504L251.805 237.057ZM220.072 237.057L222.125 240.479L222.139 240.471L222.153 240.463L220.072 237.057ZM208.895 249.231L212.41 251.123L212.419 251.105L212.429 251.086L208.895 249.231ZM208.895 286.153L205.361 288.009L205.371 288.027L205.381 288.046L208.895 286.153ZM220.072 298.328L217.947 301.707L218.003 301.742L218.06 301.775L220.072 298.328ZM236.038 336.647C221.573 336.647 208.713 333.643 197.371 327.72L193.676 334.797C206.283 341.38 220.433 344.63 236.038 344.63V336.647ZM197.371 327.72C186.007 321.786 177.175 313.626 170.783 303.223L163.982 307.403C171.161 319.087 181.09 328.224 193.676 334.797L197.371 327.72ZM170.794 303.241C164.414 292.732 161.195 280.884 161.195 267.592H153.212C153.212 282.241 156.779 295.541 163.97 307.384L170.794 303.241ZM161.195 267.592C161.195 254.3 164.414 242.527 170.783 232.161L163.982 227.982C156.78 239.703 153.212 252.944 153.212 267.592H161.195ZM170.794 232.143C177.189 221.61 186.019 213.393 197.371 207.464L193.676 200.388C181.078 206.967 171.147 216.18 163.97 228L170.794 232.143ZM197.371 207.464C208.713 201.541 221.573 198.538 236.038 198.538V190.554C220.433 190.554 206.283 193.804 193.676 200.388L197.371 207.464ZM236.038 198.538C250.503 198.538 263.363 201.541 274.705 207.464L278.4 200.388C265.793 193.804 251.643 190.554 236.038 190.554V198.538ZM274.705 207.464C286.057 213.393 294.887 221.61 301.281 232.143L308.105 228C300.929 216.18 290.998 206.967 278.4 200.388L274.705 207.464ZM301.293 232.161C307.662 242.527 310.88 254.3 310.88 267.592H318.864C318.864 252.944 315.296 239.703 308.094 227.982L301.293 232.161ZM310.88 267.592C310.88 280.884 307.662 292.732 301.281 303.241L308.105 307.384C315.296 295.541 318.864 282.241 318.864 267.592H310.88ZM301.293 303.223C294.901 313.626 286.069 321.786 274.705 327.72L278.4 334.797C290.986 328.224 300.915 319.087 308.094 307.403L301.293 303.223ZM274.705 327.72C263.363 333.643 250.503 336.647 236.038 336.647V344.63C251.643 344.63 265.793 341.38 278.4 334.797L274.705 327.72ZM236.038 306.51C242.557 306.51 248.533 304.946 253.858 301.75L249.751 294.905C245.763 297.298 241.227 298.527 236.038 298.527V306.51ZM253.886 301.734C259.31 298.419 263.583 293.825 266.695 288.046L259.666 284.261C257.19 288.86 253.879 292.382 249.723 294.922L253.886 301.734ZM266.715 288.009C269.858 282.023 271.364 275.179 271.364 267.592H263.38C263.38 274.11 262.092 279.64 259.647 284.298L266.715 288.009ZM271.364 267.592C271.364 260.009 269.859 253.213 266.695 247.339L259.666 251.123C262.091 255.627 263.38 261.072 263.38 267.592H271.364ZM266.715 247.376C263.603 241.448 259.307 236.812 253.816 233.609L249.794 240.504C253.882 242.89 257.17 246.37 259.647 251.086L266.715 247.376ZM253.929 233.677C248.594 230.324 242.593 228.674 236.038 228.674V236.657C241.191 236.657 245.701 237.935 249.681 240.436L253.929 233.677ZM236.038 228.674C229.482 228.674 223.434 230.324 217.99 233.651L222.153 240.463C226.289 237.935 230.885 236.657 236.038 236.657V228.674ZM218.018 233.634C212.667 236.844 208.458 241.476 205.361 247.376L212.429 251.086C214.92 246.341 218.162 242.857 222.125 240.479L218.018 233.634ZM205.381 247.339C202.217 253.213 200.712 260.009 200.712 267.592H208.695C208.695 261.072 209.985 255.627 212.41 251.123L205.381 247.339ZM200.712 267.592C200.712 275.179 202.218 282.023 205.361 288.009L212.429 284.298C209.984 279.64 208.695 274.11 208.695 267.592H200.712ZM205.381 288.046C208.478 293.797 212.665 298.387 217.947 301.707L222.196 294.948C218.165 292.414 214.901 288.887 212.41 284.261L205.381 288.046ZM218.06 301.775C223.495 304.946 229.518 306.51 236.038 306.51V298.527C230.849 298.527 226.228 297.298 222.083 294.88L218.06 301.775ZM351.726 323.275L348.951 326.145L351.726 323.275ZM333.764 197.739V193.748H329.772V197.739H333.764ZM380.864 197.739H384.856V193.748H380.864V197.739ZM386.253 295.534L383.093 297.972L383.114 298L383.136 298.027L386.253 295.534ZM417.986 295.534L414.869 293.04L414.847 293.068L414.826 293.095L417.986 295.534ZM423.575 197.739V193.748H419.583V197.739H423.575ZM469.877 197.739H473.869V193.748H469.877V197.739ZM451.915 323.275L449.141 320.405L451.915 323.275ZM401.82 336.647C381.126 336.647 365.535 331.072 354.5 320.405L348.951 326.145C361.866 338.629 379.672 344.63 401.82 344.63V336.647ZM354.5 320.405C343.491 309.763 337.755 294.677 337.755 274.578H329.772C329.772 296.257 336.011 313.636 348.951 326.145L354.5 320.405ZM337.755 274.578V197.739H329.772V274.578H337.755ZM333.764 201.731H380.864V193.748H333.764V201.731ZM376.873 197.739V273.181H384.856V197.739H376.873ZM376.873 273.181C376.873 283.722 378.688 292.262 383.093 297.972L389.414 293.095C386.633 289.491 384.856 283.13 384.856 273.181H376.873ZM383.136 298.027C387.746 303.789 394.306 306.51 402.219 306.51V298.527C396.295 298.527 392.211 296.592 389.37 293.04L383.136 298.027ZM402.219 306.51C410.13 306.51 416.66 303.787 421.147 297.972L414.826 293.095C412.127 296.593 408.147 298.527 402.219 298.527V306.51ZM421.103 298.027C425.677 292.31 427.566 283.743 427.566 273.181H419.583C419.583 283.108 417.746 289.444 414.869 293.04L421.103 298.027ZM427.566 273.181V197.739H419.583V273.181H427.566ZM423.575 201.731H469.877V193.748H423.575V201.731ZM465.885 197.739V274.578H473.869V197.739H465.885ZM465.885 274.578C465.885 294.677 460.15 309.763 449.141 320.405L454.689 326.145C467.629 313.636 473.869 296.257 473.869 274.578H465.885ZM449.141 320.405C438.106 331.072 422.515 336.647 401.82 336.647V344.63C423.969 344.63 441.774 338.629 454.689 326.145L449.141 320.405Z" fill="#E54920"/>
</svg>
