<svg width="466" height="221" viewBox="0 0 466 221" fill="none" xmlns="http://www.w3.org/2000/svg">
<path d="M96.5731 90.9183L125.874 76.2679V176.088L0.85714 211.052L73.2712 143.181L96.5731 90.9183Z" fill="#CDCEDA"/>
<path d="M125.873 0.0856323V52.8271L103.409 65.5241L125.873 0.0856323Z" fill="#CDCEDA"/>
<path d="M147.362 50.8738V201.475L260.658 220.819L183.754 162.789L147.362 50.8738Z" fill="#9E9EAA"/>
<path d="M262.41 137.971C260.579 137.971 258.726 137.753 256.851 137.317C254.977 136.837 253.407 136.053 252.143 134.963L255.086 128.227C255.87 129.143 256.742 129.84 257.701 130.32C258.704 130.756 259.925 130.974 261.363 130.974C262.715 130.974 263.805 130.734 264.633 130.254C265.461 129.775 266.072 128.903 266.464 127.639C266.9 126.374 267.118 124.565 267.118 122.211V89.2535H274.376V124.042C274.376 128.925 273.265 132.478 271.041 134.701C268.862 136.881 265.984 137.971 262.41 137.971ZM285.947 89.2535H307.003V95.6619H293.205V108.937H304.322V115.476H293.205V130.843H309.161V137.317H285.947V89.2535ZM326.673 95.6619H314.379V89.2535H346.356V95.6619H333.931V137.317H326.673V95.6619ZM354.388 89.2535H361.777V130.778H375.575V137.317H354.388V89.2535ZM394.123 114.887L377.448 89.2535H386.21L397.785 108.217L409.359 89.2535H418.056L401.447 115.018V137.317H394.123V114.887ZM430.211 106.19L430.407 111.421V137.317H423.083V89.1881H423.998L452.248 120.707L451.986 115.214V89.2535H459.31V137.317H458.329L430.211 106.19Z" fill="#FBFAFA"/>
</svg>
