<svg width="484" height="222" viewBox="0 0 484 222" fill="none" xmlns="http://www.w3.org/2000/svg">
<path d="M96.4017 91.2041L125.703 76.5537V176.374L0.685715 211.337L73.0998 143.467L96.4017 91.2041Z" fill="#CDCEDA"/>
<path d="M125.702 0.371567V53.113L103.238 65.81L125.702 0.371567Z" fill="#CDCEDA"/>
<path d="M147.19 51.1598V201.761L260.487 221.104L183.582 163.075L147.19 51.1598Z" fill="#9E9EAA"/>
<path d="M262.709 90.2366V130.979C262.709 134.598 262.113 137.599 260.921 139.983C259.729 142.367 258.089 144.283 256.003 145.731C253.96 147.221 251.597 148.455 248.915 149.434L246.105 143.879C253.343 141.282 256.961 137.365 256.961 132.129V90.2366H262.709ZM303.65 108.5V113.929H282.832V127.722H306.396V133.15H277.085V90.3643H306.396V95.7924H282.832V108.5H303.65ZM348.998 90.3643V95.7924H334.247V132.959H328.499V95.7924H313.748V90.3643H348.998ZM363.949 90.3643V127.722H387.513V133.15H358.202V90.3643H363.949ZM431.776 90.3643L415.364 115.589V133.15H409.169V116.419L392.758 90.3643H399.654L412.171 110.544L424.879 90.3643H431.776ZM475.463 90.3643V133.15H473.292L445.513 102.562V133.15H439.766V90.3643H441.937L469.716 121.336V90.3643H475.463Z" fill="#FBFAFA"/>
</svg>
